<svg width="99" height="99" viewBox="0 0 99 99" fill="none" xmlns="http://www.w3.org/2000/svg">
<path d="M80.5192 15.5976C77.6073 15.5976 75.2392 17.9664 75.2392 20.8776C75.2392 23.7889 77.6073 26.1576 80.5192 26.1576C83.4311 26.1576 85.7992 23.7889 85.7992 20.8776C85.7992 17.9664 83.4311 15.5976 80.5192 15.5976ZM80.5192 23.5176C79.0639 23.5176 77.8792 22.3336 77.8792 20.8776C77.8792 19.4217 79.0639 18.2376 80.5192 18.2376C81.9745 18.2376 83.1592 19.4217 83.1592 20.8776C83.1592 22.3336 81.9745 23.5176 80.5192 23.5176ZM70.4446 12.2976C70.4446 11.472 71.1139 10.8027 71.9392 10.8027C72.7645 10.8027 73.4338 11.472 73.4338 12.2976C73.4338 13.123 72.7645 13.7922 71.9392 13.7922C71.1139 13.7922 70.4446 13.123 70.4446 12.2976ZM59.8846 16.2576C59.8846 15.432 60.5539 14.7627 61.3792 14.7627C62.2046 14.7627 62.8738 15.432 62.8738 16.2576C62.8738 17.083 62.2046 17.7522 61.3792 17.7522C60.5539 17.7522 59.8846 17.083 59.8846 16.2576ZM79.1992 38.0376H72.5992V31.4376C72.5992 30.7087 72.0089 30.1176 71.2792 30.1176H63.3592V22.1976C63.3592 21.4687 62.7689 20.8776 62.0392 20.8776H14.5192C13.7896 20.8776 13.1992 21.4687 13.1992 22.1976V69.7176C13.1992 70.4466 13.7896 71.0376 14.5192 71.0376H22.4392V78.9576C22.4392 79.6866 23.0296 80.2776 23.7592 80.2776H30.3592V86.8776C30.3592 87.6066 30.9496 88.1976 31.6792 88.1976H79.1992C79.9288 88.1976 80.5192 87.6066 80.5192 86.8776V39.3576C80.5192 38.6287 79.9288 38.0376 79.1992 38.0376ZM77.8792 40.6776V83.6911L72.5992 78.4111V40.6776H77.8792ZM15.8392 23.5176H60.7192V68.3976H15.8392V23.5176ZM25.0792 71.0376H61.4927L68.0927 77.6376H25.0792V71.0376ZM32.9992 80.2763H70.7327L76.0127 85.4751H32.9992V80.2763ZM53.213 36.6242L47.6133 31.0238C47.3658 30.7763 47.0305 30.6371 46.68 30.6371C46.3296 30.6371 45.9943 30.7763 45.7468 31.0238L38.2792 38.4907L30.8116 31.0238C30.3167 30.5288 29.4402 30.5288 28.9452 31.0238L23.3454 36.6242C22.8299 37.1397 22.8299 37.9753 23.3454 38.4907L30.813 45.9576L23.3454 53.4245C22.8299 53.94 22.8299 54.7756 23.3454 55.291L28.9452 60.8914C29.1927 61.139 29.5279 61.2782 29.8784 61.2782C30.2289 61.2782 30.5641 61.139 30.8116 60.8914L38.2792 53.4245L45.7468 60.8914C45.9943 61.139 46.3296 61.2782 46.68 61.2782C47.0305 61.2782 47.3658 61.139 47.6133 60.8914L53.213 55.291C53.7285 54.7756 53.7285 53.94 53.213 53.4245L45.7455 45.9576L53.213 38.4907C53.7285 37.9749 53.7285 37.1397 53.213 36.6242ZM42.9458 45.0244C42.6983 45.2719 42.559 45.6078 42.559 45.9576C42.559 46.3074 42.6983 46.6434 42.9458 46.8909L50.4133 54.3578L46.6804 58.0914L39.2128 50.6245C38.9551 50.3668 38.6171 50.2377 38.2795 50.2377C37.942 50.2377 37.604 50.3668 37.3463 50.6245L29.8787 58.0914L26.1451 54.3578L33.6127 46.8909C33.8602 46.6434 33.9994 46.3074 33.9994 45.9576C33.9994 45.6078 33.8602 45.2719 33.6127 45.0244L26.1451 37.5575L29.8781 33.8239L37.3456 41.2908C37.8611 41.8062 38.6967 41.8062 39.2121 41.2908L46.6797 33.8239L50.4127 37.5575L42.9458 45.0244Z" fill="#006EAD"/>
</svg>
