<svg width="209" height="37" viewBox="0 0 209 37" fill="none" xmlns="http://www.w3.org/2000/svg">
<path d="M47.1777 22.1219L50.7142 14.8789H76.547L73.0106 22.1219H47.1777Z" fill="#9C9C9C"/>
<path d="M47.0602 7.63364L32.9234 36.5967H25.3517L22.9109 13.0681L11.3039 36.5967H3.74113L0.160156 0.390625H7.72295L9.98555 23.9282L21.5925 0.390625H29.1553L31.605 23.9282L43.0249 0.390625H82.7452L79.2087 7.63364H47.0602Z" fill="url(#paint0_linear_672_2721)"/>
<path d="M41.084 36.5973L44.6115 29.3633H70.4444L66.9079 36.5973H41.084Z" fill="#9C9C9C"/>
<path d="M207.974 5.01154H198.79L195.342 23.4727H190.755L194.202 5.01154H185.018L185.882 0.400719H208.838L207.974 5.01154ZM180.573 16.5431C179.709 21.1539 176.983 23.4638 172.396 23.4638H157.475L158.339 18.8529H173.26C174.792 18.8529 175.7 18.083 175.985 16.5431C176.271 15.0031 175.647 14.2332 174.124 14.2332H164.94C160.352 14.2332 158.481 11.9233 159.346 7.31247C160.21 2.70165 162.935 0.391765 167.523 0.391765H182.444L181.58 5.00258H166.659C165.127 5.00258 164.218 5.77255 163.933 7.31247C163.648 8.8524 164.272 9.62236 165.795 9.62236H174.979C179.566 9.62236 181.428 11.9322 180.573 16.5431ZM157.475 5.01154H139.107L138.243 9.62236H152.014L151.15 14.2332H137.379L136.515 18.844H154.883L154.019 23.4548H131.072L135.383 0.382812H158.339L157.475 5.01154ZM134.234 0.391765L123.153 23.4638H118.334L116.659 8.46741L109.381 23.4638H104.562L102.104 0.391765H106.923L108.482 15.3881L115.759 0.391765H120.578L122.253 15.3881L129.415 0.391765H134.234Z" fill="url(#paint1_linear_672_2721)"/>
<path d="M205.361 36.5976H199.205C197.451 36.5976 196.738 35.7112 197.076 33.9475L197.762 30.411C198.101 28.6473 199.152 27.7609 200.916 27.7609H207.071L206.733 29.5247H200.577C199.989 29.5247 199.642 29.8201 199.526 30.411L198.84 33.9475C198.724 34.5384 198.965 34.8338 199.553 34.8338H203.953L204.292 33.0701H202.537L202.875 31.3063H206.394L205.361 36.5976ZM194.351 36.5976H192.596L188.498 30.4737L187.313 36.5976H185.558L187.26 27.7609H189.015L193.112 33.8848L194.297 27.7609H196.052L194.351 36.5976ZM183.349 36.5976H181.594L183.296 27.7609H185.051L183.349 36.5976ZM178.806 30.411C178.922 29.8201 178.682 29.5247 178.094 29.5247H173.693L173.185 32.1748H177.586C178.174 32.1748 178.521 31.8793 178.637 31.2884L178.806 30.411ZM180.561 30.411L180.392 31.2974C180.053 33.0611 179.002 33.9475 177.239 33.9475L179.368 36.5976H176.873L174.744 33.9475H172.838L172.33 36.5976H170.575L172.277 27.7609H178.432C180.196 27.7609 180.909 28.6473 180.561 30.411ZM169.729 29.5336H162.692L162.353 31.2974H167.627L167.288 33.0611H162.015L161.676 34.8249H168.714L168.375 36.5886H159.574L161.276 27.752H170.068L169.729 29.5336ZM158.719 29.5336H151.682L151.343 31.2974H156.617L156.278 33.0611H151.005L150.666 34.8338H157.704L157.365 36.5976H148.573L150.274 27.7609H159.066L158.719 29.5336ZM146.346 36.5976H144.591L140.493 30.4737L139.309 36.5976H137.554L139.255 27.7609H141.01L145.108 33.8848L146.293 27.7609H148.047L146.346 36.5976ZM135.345 36.5976H133.59L135.291 27.7609H137.046L135.345 36.5976ZM131.372 36.5976H125.216C123.462 36.5976 122.749 35.7112 123.087 33.9475L123.773 30.411C124.112 28.6473 125.163 27.7609 126.927 27.7609H133.082L132.744 29.5247H126.588C126 29.5247 125.653 29.8201 125.537 30.411L124.851 33.9475C124.735 34.5384 124.976 34.8338 125.564 34.8338H129.964L130.303 33.0701H128.548L128.887 31.3063H132.405L131.372 36.5976ZM120.362 36.5976H118.598L114.5 30.4737L113.316 36.5976H111.561L113.262 27.7609H115.017L119.115 33.8848L120.299 27.7609H122.054L120.362 36.5976ZM110.714 29.5336H103.677L103.339 31.2974H108.612L108.274 33.0611H103L102.662 34.8249H109.699L109.36 36.5886H100.568L102.27 27.752H111.062L110.714 29.5336Z" fill="#9C9C9C"/>
<defs>
<linearGradient id="paint0_linear_672_2721" x1="41.4502" y1="31.7178" x2="41.4502" y2="6.66626" gradientUnits="userSpaceOnUse">
<stop stop-color="#003472"/>
<stop offset="1" stop-color="#006EAD"/>
</linearGradient>
<linearGradient id="paint1_linear_672_2721" x1="155.466" y1="20.0609" x2="155.466" y2="4.19538" gradientUnits="userSpaceOnUse">
<stop stop-color="#003472"/>
<stop offset="1" stop-color="#006EAD"/>
</linearGradient>
</defs>
</svg>
