<svg width="98" height="98" viewBox="0 0 98 98" fill="none" xmlns="http://www.w3.org/2000/svg">
<path d="M15.0836 65.5206H81.6099C82.0947 65.5206 82.539 65.2527 82.7647 64.8244C82.9917 64.3958 82.9623 63.8778 82.6896 63.4776L49.427 14.7206C48.9397 14.0085 47.7555 14.0059 47.2681 14.7206L14.004 63.4776C13.7309 63.8778 13.7015 64.3958 13.9288 64.8244C14.1545 65.2524 14.5988 65.5206 15.0836 65.5206ZM48.3474 17.7756L79.1371 62.9072H17.5565L48.3474 17.7756ZM89.2804 81.7709L79.4804 67.3976C78.993 66.6841 77.8088 66.6841 77.3214 67.3976L68.6008 80.1876L59.8804 67.3976C59.393 66.6841 58.2088 66.6841 57.7214 67.3976L49.0007 80.1876L40.2804 67.3976C39.793 66.6841 38.6088 66.6841 38.1214 67.3976L29.4007 80.1876L20.6804 67.3976C20.193 66.6841 19.0088 66.6841 18.5214 67.3976L8.72142 81.7709C8.44833 82.1717 8.41893 82.6895 8.64629 83.1178C8.87202 83.546 9.31628 83.8139 9.80106 83.8139H88.2011C88.6859 83.8139 89.1301 83.546 89.3559 83.1178C89.5826 82.6895 89.5535 82.1714 89.2804 81.7709ZM31.8736 81.2006L39.2007 70.4532L46.5279 81.2006H31.8736ZM71.0736 81.2006L78.4008 70.4532L85.7279 81.2006H71.0736ZM22.8099 25.0139C25.6924 25.0139 28.0366 22.6691 28.0366 19.7872C28.0366 16.9054 25.6924 14.5606 22.8099 14.5606C19.9274 14.5606 17.5832 16.9054 17.5832 19.7872C17.5832 22.6691 19.9274 25.0139 22.8099 25.0139ZM22.8099 17.1739C24.2505 17.1739 25.4232 18.346 25.4232 19.7872C25.4232 21.2285 24.2505 22.4006 22.8099 22.4006C21.3693 22.4006 20.1966 21.2285 20.1966 19.7872C20.1966 18.346 21.3693 17.1739 22.8099 17.1739ZM72.9438 23.0539C72.9438 22.2366 73.6063 21.5741 74.4236 21.5741C75.2409 21.5741 75.9034 22.2366 75.9034 23.0539C75.9034 23.8709 75.2409 24.5334 74.4236 24.5334C73.6063 24.5334 72.9438 23.8709 72.9438 23.0539ZM48.2899 35.2941C50.8115 35.2941 52.8633 33.2423 52.8633 30.7208C52.8633 28.1992 50.8115 26.1474 48.2899 26.1474C45.7684 26.1474 43.7166 28.1992 43.7166 30.7208C43.7166 33.2423 45.7684 35.2941 48.2899 35.2941ZM48.2899 28.7608C49.3709 28.7608 50.2499 29.6398 50.2499 30.7208C50.2499 31.8017 49.3709 32.6808 48.2899 32.6808C47.209 32.6808 46.3299 31.8017 46.3299 30.7208C46.3299 29.6398 47.2093 28.7608 48.2899 28.7608ZM48.2899 38.0806C45.7684 38.0806 43.7166 40.1324 43.7166 42.6539C43.7166 45.1754 45.7684 47.2272 48.2899 47.2272C50.8115 47.2272 52.8633 45.1754 52.8633 42.6539C52.8633 40.1324 50.8115 38.0806 48.2899 38.0806ZM48.2899 44.6139C47.209 44.6139 46.3299 43.7348 46.3299 42.6539C46.3299 41.573 47.209 40.6939 48.2899 40.6939C49.3709 40.6939 50.2499 41.573 50.2499 42.6539C50.2499 43.7348 49.3709 44.6139 48.2899 44.6139ZM48.2899 50.0134C45.7684 50.0134 43.7166 52.0652 43.7166 54.5867C43.7166 57.1082 45.7684 59.16 48.2899 59.16C50.8115 59.16 52.8633 57.1082 52.8633 54.5867C52.8633 52.0652 50.8115 50.0134 48.2899 50.0134ZM48.2899 56.5467C47.209 56.5467 46.3299 55.6676 46.3299 54.5867C46.3299 53.5058 47.209 52.6267 48.2899 52.6267C49.3709 52.6267 50.2499 53.5058 50.2499 54.5867C50.2499 55.6676 49.3709 56.5467 48.2899 56.5467ZM76.8638 30.8939C76.8638 30.0766 77.5263 29.4141 78.3436 29.4141C79.1609 29.4141 79.8234 30.0766 79.8234 30.8939C79.8234 31.7109 79.1609 32.3734 78.3436 32.3734C77.5263 32.3734 76.8638 31.7109 76.8638 30.8939Z" fill="#006EAD"/>
</svg>
