<svg width="99" height="99" viewBox="0 0 99 99" fill="none" xmlns="http://www.w3.org/2000/svg">
<path d="M79.443 23.0991C82.3549 23.0991 84.723 20.7303 84.723 17.8191C84.723 14.9078 82.3549 12.5391 79.443 12.5391C76.5311 12.5391 74.163 14.9078 74.163 17.8191C74.163 20.7303 76.5311 23.0991 79.443 23.0991ZM79.443 15.1791C80.8983 15.1791 82.083 16.3631 82.083 17.8191C82.083 19.275 80.8983 20.4591 79.443 20.4591C77.9877 20.4591 76.803 19.275 76.803 17.8191C76.803 16.3631 77.9877 15.1791 79.443 15.1791ZM23.5295 27.8369C24.798 26.5717 26.1761 25.3965 27.6254 24.3448C28.2145 23.9181 29.0415 24.0485 29.4695 24.6382C29.8975 25.2286 29.7658 26.0536 29.1761 26.4822C27.8373 27.4534 26.5645 28.5381 25.3933 29.7063C25.1362 29.9634 24.7983 30.0918 24.4614 30.0918C24.1231 30.0918 23.7846 29.9621 23.5268 29.7037C23.0117 29.1872 23.013 28.352 23.5295 27.8369ZM15.1518 58.5523C14.5122 58.5523 13.9502 58.0863 13.8493 57.4339C13.58 55.6945 13.4434 53.9128 13.4434 52.1391C13.4434 51.4101 14.0337 50.7854 14.7634 50.7854C15.4923 50.7854 16.0827 51.3428 16.0827 52.0717H14.7627L16.0827 52.1008C16.0834 53.7778 16.2097 55.4232 16.4586 57.0303C16.5701 57.7504 16.0764 58.4252 15.3557 58.5364C15.2871 58.547 15.2194 58.5523 15.1518 58.5523ZM17.204 36.5027C18.0208 34.9108 18.9705 33.3697 20.0272 31.9219C20.4565 31.3329 21.2828 31.2052 21.8719 31.6345C22.4603 32.0645 22.5893 32.8902 22.1593 33.4792C21.1842 34.8154 20.307 36.2377 19.553 37.7078C19.319 38.1636 18.857 38.4253 18.3775 38.4253C18.1752 38.4253 17.969 38.3787 17.7763 38.2797C17.1271 37.9471 16.8714 37.1518 17.204 36.5027ZM13.8697 46.705C14.1519 44.9332 14.5769 43.1723 15.1323 41.4721C15.3597 40.7791 16.1088 40.4029 16.7971 40.627C17.4901 40.8541 17.8683 41.5989 17.6423 42.2919C17.1291 43.8607 16.7374 45.4849 16.4777 47.1201C16.3741 47.7699 15.8131 48.2325 15.1759 48.2325C15.1062 48.2325 15.0366 48.2272 14.9663 48.2164C14.2462 48.1018 13.7555 47.425 13.8697 46.705ZM63.3684 21.5646C64.9616 22.3793 66.5034 23.3274 67.9524 24.3831C68.5415 24.8124 68.6718 25.6381 68.2425 26.2271C67.9835 26.5816 67.5812 26.77 67.174 26.77C66.9047 26.77 66.6324 26.6875 66.3978 26.5165C65.0596 25.5427 63.6367 24.6669 62.1672 23.9145C61.5174 23.5825 61.261 22.7872 61.5923 22.1381C61.926 21.489 62.7213 21.2332 63.3684 21.5646ZM31.6402 23.3093C31.3096 22.6595 31.5679 21.8649 32.2177 21.5342C33.8182 20.7201 35.4926 20.0281 37.1961 19.477C37.8914 19.2559 38.6332 19.6344 38.8583 20.3271C39.0827 21.0207 38.7016 21.7649 38.0082 21.9893C36.4368 22.4971 34.8914 23.136 33.4153 23.8868C33.2232 23.9848 33.019 24.0307 32.8177 24.0307C32.3362 24.0303 31.8729 23.7667 31.6402 23.3093ZM41.332 19.7377C41.2198 19.0176 41.7128 18.3428 42.4335 18.2302C44.1848 17.9577 45.9777 17.8191 47.763 17.8191C48.4927 17.8191 49.0999 18.4101 49.0999 19.1391C49.0999 19.868 48.5263 20.4591 47.7967 20.4591H47.763C46.1143 20.4591 44.4578 20.5868 42.8394 20.8392C42.7711 20.8495 42.7022 20.8547 42.6345 20.8547C41.9953 20.8547 41.434 20.3894 41.332 19.7377ZM51.6521 19.3387C51.7643 18.62 52.4411 18.1303 53.1615 18.2411C54.9313 18.521 56.6922 18.9437 58.3963 19.4988C59.09 19.7245 59.4688 20.4686 59.2431 21.1623C59.0612 21.7197 58.5445 22.0744 57.9874 22.0744C57.8521 22.0744 57.7142 22.0533 57.5789 22.0087C56.0074 21.4976 54.3818 21.1072 52.7487 20.8491C52.0299 20.7349 51.5376 20.0594 51.6521 19.3387ZM70.172 29.7472C69.6566 29.2318 69.6566 28.3962 70.172 27.8808C70.6875 27.3653 71.523 27.3653 72.0385 27.8808C73.307 29.1493 74.4838 30.5267 75.5358 31.9741C75.9652 32.5638 75.8348 33.3895 75.2444 33.8181C75.0098 33.9884 74.7392 34.0702 74.4696 34.0702C74.0611 34.0702 73.6588 33.8821 73.4011 33.5264C72.4292 32.1902 71.3425 30.9184 70.172 29.7472ZM78.3537 36.5641C79.1685 38.1662 79.8618 39.8403 80.4136 41.5391C80.6393 42.2321 80.2588 42.9769 79.5655 43.202C79.4302 43.2459 79.2935 43.267 79.1582 43.267C78.6012 43.267 78.0844 42.9119 77.9026 42.3536C77.3934 40.7861 76.7542 39.241 75.9998 37.7613C75.6698 37.1115 75.9275 36.3169 76.5773 35.9862C77.2271 35.6526 78.0227 35.9136 78.3537 36.5641ZM71.9524 74.6243C72.4668 75.1417 72.4642 75.9773 71.9471 76.4914C70.6772 77.7527 69.2969 78.9245 67.8439 79.9746C67.6092 80.1435 67.34 80.2247 67.0717 80.2247C66.6618 80.2247 66.2582 80.0353 66.0005 79.6776C65.5738 79.0865 65.7064 78.2615 66.2968 77.8348C67.6386 76.8653 68.9137 75.7832 70.0852 74.6187C70.6027 74.1042 71.4379 74.1072 71.9524 74.6243ZM78.2907 67.8372C77.4696 69.4291 76.5169 70.9682 75.4586 72.412C75.1996 72.7644 74.7986 72.9515 74.3927 72.9515C74.1221 72.9515 73.8489 72.8683 73.6142 72.6964C73.0265 72.2651 72.8988 71.4394 73.3294 70.8511C74.3066 69.5182 75.187 68.0969 75.945 66.6267C76.2803 65.9783 77.0756 65.7238 77.7227 66.0588C78.3705 66.3928 78.6246 67.1894 78.2907 67.8372ZM81.6669 46.7752C81.9428 48.5348 82.0834 50.3396 82.0834 52.1391C82.0834 52.868 81.4917 53.5261 80.762 53.5261C80.0337 53.5261 79.442 53.0014 79.442 52.2724L79.4434 52.1008C79.4434 50.4759 79.3143 48.8097 79.0579 47.1851C78.9457 46.465 79.4368 45.7895 80.1575 45.6763C80.8739 45.5602 81.5521 46.0545 81.6669 46.7752ZM81.6435 57.6421C81.3574 59.4126 80.9294 61.1722 80.3713 62.8713C80.1882 63.4277 79.6727 63.7801 79.117 63.7801C78.9804 63.7801 78.8424 63.7584 78.7045 63.7138C78.0121 63.4864 77.6359 62.74 77.8627 62.0476C78.3781 60.4795 78.7728 58.8559 79.0371 57.2207C79.1533 56.5007 79.8285 56.0057 80.5505 56.1281C81.2709 56.2446 81.7596 56.9221 81.6435 57.6421ZM63.8288 81.0025C64.1574 81.6529 63.8971 82.4469 63.2473 82.7763C61.6488 83.5858 59.9717 84.2741 58.2636 84.8226C58.1297 84.8658 57.9944 84.8863 57.86 84.8863C57.302 84.8863 56.7836 84.5292 56.6031 83.9692C56.38 83.2749 56.7615 82.5321 57.4564 82.309C59.0329 81.8031 60.5786 81.1675 62.0534 80.4211C62.7084 80.0911 63.4988 80.3514 63.8288 81.0025ZM54.1271 84.5527C54.238 85.2734 53.7443 85.9476 53.0236 86.0581C51.2963 86.3244 49.5262 86.4591 47.763 86.4591C47.0334 86.4591 46.3929 85.868 46.3929 85.1391C46.3929 84.4101 46.9331 83.8191 47.6627 83.8191H47.7634C49.3929 83.8191 51.0274 83.6947 52.622 83.4491C53.3447 83.3445 54.0162 83.8326 54.1271 84.5527ZM43.8083 84.9308C43.704 85.5799 43.143 86.0419 42.5065 86.0419C42.4368 86.0419 42.3665 86.0367 42.2956 86.0251C40.5251 85.7416 38.7649 85.3149 37.0634 84.7572C36.3704 84.5302 35.9936 83.7847 36.2203 83.0917C36.4477 82.4001 37.1935 82.0219 37.8858 82.2486C39.4553 82.7631 41.0795 83.1561 42.7134 83.4184C43.4331 83.5343 43.9232 84.2111 43.8083 84.9308ZM25.3075 74.485C25.8213 75.0018 25.8194 75.838 25.3029 76.3522C25.0452 76.6079 24.7086 76.7363 24.3716 76.7363C24.0327 76.7363 23.6941 76.6066 23.4358 76.3475C22.1712 75.0764 20.9974 73.6973 19.9483 72.2476C19.521 71.6572 19.653 70.8316 20.2437 70.4042C20.8354 69.9756 21.659 70.1089 22.0871 70.6996C23.0556 72.0377 24.139 73.3112 25.3075 74.485ZM33.8727 82.1123C33.6387 82.5674 33.1767 82.8284 32.6975 82.8284C32.4946 82.8284 32.2883 82.7812 32.095 82.6822C30.5024 81.8638 28.9626 80.9118 27.5175 79.8548C26.9291 79.4241 26.8008 78.5978 27.2314 78.0101C27.6614 77.421 28.4877 77.2933 29.0761 77.724C30.4103 78.7004 31.8323 79.5789 33.3031 80.3349C33.9509 80.6679 34.2066 81.4639 33.8727 82.1123ZM19.4959 66.4588C19.8259 67.1092 19.5668 67.9032 18.9164 68.2332C18.725 68.3305 18.5207 68.3764 18.3201 68.3764C17.8386 68.3764 17.3746 68.1127 17.142 67.654C16.3292 66.0535 15.6388 64.3778 15.0904 62.673C14.8666 61.9787 15.2485 61.2352 15.9418 61.0121C16.6371 60.787 17.3796 61.1695 17.6027 61.8635C18.1096 63.4356 18.7465 64.982 19.4959 66.4588ZM67.076 43.1317C66.6311 42.5569 65.7998 42.4506 65.225 42.8971C64.6488 43.3439 64.5432 44.1732 64.9904 44.7494C67.9693 48.5926 69.5434 53.2023 69.5434 58.0791C69.5434 65.7106 65.59 72.4265 59.6315 76.3172C61.2963 73.9547 62.2834 71.0824 62.2834 67.9791C62.2834 59.9726 55.7698 53.4591 47.7634 53.4591C39.7569 53.4591 33.2434 59.9726 33.2434 67.9791C33.2434 71.0824 34.2304 73.955 35.8952 76.3175C29.9368 72.4268 25.983 65.711 25.983 58.0791C25.983 46.0694 35.7533 36.2991 47.763 36.2991C52.2438 36.2991 56.5493 37.6494 60.2103 40.2036C60.8109 40.6207 61.6323 40.4716 62.0484 39.8763C62.4649 39.2783 62.319 38.455 61.721 38.0382C57.6142 35.1731 52.7879 33.6591 47.763 33.6591C34.2974 33.6591 23.343 44.6134 23.343 58.0791C23.343 71.0441 33.506 81.651 46.2803 82.4238C46.7681 82.4737 47.2628 82.4991 47.763 82.4991C48.2633 82.4991 48.7583 82.4737 49.2457 82.4238C62.0197 81.651 72.183 71.0441 72.183 58.0791C72.183 52.6116 70.4172 47.4432 67.076 43.1317ZM85.5579 83.1591C85.5579 83.9844 84.8887 84.6536 84.063 84.6536C83.2374 84.6536 82.5681 83.9844 82.5681 83.1591C82.5681 82.3334 83.2374 81.6642 84.063 81.6642C84.8887 81.6642 85.5579 82.3334 85.5579 83.1591ZM20.5285 14.5191C20.5285 13.6934 21.1977 13.0242 22.0234 13.0242C22.849 13.0242 23.5183 13.6934 23.5183 14.5191C23.5183 15.3444 22.849 16.0136 22.0234 16.0136C21.1977 16.0136 20.5285 15.3444 20.5285 14.5191ZM61.4485 15.8391C61.4485 15.0134 62.1177 14.3442 62.9434 14.3442C63.769 14.3442 64.4383 15.0134 64.4383 15.8391C64.4383 16.6644 63.769 17.3336 62.9434 17.3336C62.1177 17.3336 61.4485 16.6644 61.4485 15.8391Z" fill="#006EAD"/>
</svg>
