<svg width="90" height="90" viewBox="0 0 90 90" fill="none" xmlns="http://www.w3.org/2000/svg">
<path d="M61.2007 29.4005C58.5535 29.4005 56.4007 31.5539 56.4007 34.2005C56.4007 36.8471 58.5535 39.0005 61.2007 39.0005C63.8479 39.0005 66.0007 36.8471 66.0007 34.2005C66.0007 31.5539 63.8479 29.4005 61.2007 29.4005ZM77.4862 37.8953C78.1447 37.7975 78.7519 38.2532 78.8467 38.909C79.081 40.5152 79.2007 42.1604 79.2007 43.8005C79.2007 44.4632 78.664 45.032 78.0019 45.032C77.3386 45.032 76.8019 44.5262 76.8019 43.8635H78.0019L76.8019 43.8482C76.8007 42.2762 76.6906 40.7468 76.4725 39.2555C76.3765 38.6003 76.8301 37.991 77.4862 37.8953ZM74.3737 28.8443C74.9737 28.5596 75.6874 28.8149 75.9721 29.4137C76.681 30.9083 77.2846 32.4704 77.7652 34.0556C77.9575 34.6901 77.5987 35.36 76.9648 35.552C76.8487 35.5871 76.7317 35.6042 76.6168 35.6042C76.1011 35.6042 75.6253 35.2697 75.4684 34.7516C75.0232 33.2798 74.4628 31.8302 73.8043 30.4427C73.5193 29.8439 73.7749 29.1287 74.3737 28.8443ZM77.818 47.4578C78.4744 47.5562 78.9253 48.1667 78.8281 48.8225C78.5833 50.4572 78.2128 52.0898 77.7265 53.6735C77.5684 54.1898 77.0926 54.5219 76.5793 54.5219C76.4632 54.5219 76.345 54.5042 76.2265 54.4685C75.5938 54.2741 75.2374 53.6024 75.4321 52.9691C75.8833 51.4991 76.2277 49.9844 76.4539 48.4673C76.5523 47.813 77.1664 47.3666 77.818 47.4578ZM68.6701 22.7945C68.2237 22.3046 68.2588 21.5453 68.7499 21.0995C69.2398 20.6531 69.9979 20.6888 70.4443 21.1787C71.56 22.4033 72.5923 23.7194 73.5133 25.0904C73.8823 25.6406 73.7371 26.3858 73.1863 26.7557C72.9811 26.8934 72.748 26.9597 72.5182 26.9597C72.1315 26.9597 71.7529 26.774 71.521 26.4287C70.666 25.1549 69.7063 23.9324 68.6701 22.7945ZM61.1197 15.3263C61.4596 14.7569 62.1967 14.5694 62.7649 14.9096C64.1839 15.755 65.554 16.7144 66.8347 17.7596C67.3492 18.1784 67.4254 18.935 67.0057 19.4483C66.769 19.739 66.4234 19.8896 66.0751 19.8896C65.809 19.8896 65.5408 19.8011 65.3182 19.6196C64.1275 18.6482 62.8549 17.7569 61.5367 16.9712C60.9676 16.6322 60.7813 15.8957 61.1197 15.3263ZM52.1374 12.0368C52.2943 11.393 52.9426 11.0009 53.5882 11.1554C55.1959 11.5487 56.7874 12.0647 58.318 12.6905C58.9309 12.9419 59.2249 13.6427 58.9744 14.2556C58.7845 14.7203 58.3357 15.002 57.8635 15.002C57.7111 15.002 57.5575 14.9726 57.4087 14.9123C55.9885 14.3309 54.5119 13.8518 53.0188 13.4873C52.3753 13.3301 51.9805 12.6806 52.1374 12.0368ZM14.6023 47.3687C14.7757 48.8957 15.0664 50.4221 15.4636 51.905C15.6358 52.5455 15.2563 53.2034 14.6152 53.375C14.5108 53.4032 14.4067 53.4167 14.3035 53.4167C13.7737 53.4167 13.2898 53.0627 13.1458 52.5272C12.7168 50.9294 12.4051 49.2845 12.2188 47.6393C12.1438 46.9808 12.6172 46.3865 13.2748 46.3115C13.9507 46.2314 14.5285 46.7102 14.6023 47.3687ZM12.0193 42.6707C12.0754 41.0078 12.2536 39.3449 12.5491 37.7288C12.6685 37.0772 13.2967 36.6482 13.9447 36.7637C14.5963 36.8825 15.0286 37.5077 14.9092 38.1599C14.6362 39.6605 14.4697 41.2055 14.4169 42.7526C14.3959 43.4006 13.8625 43.9115 13.2193 43.9115C13.2052 43.9115 13.1911 43.9115 13.177 43.9109C12.5152 43.8884 11.9959 43.3334 12.0193 42.6707ZM18.6358 25.7906C18.0991 25.4015 17.9794 24.6509 18.3685 24.1142C19.3375 22.7759 20.4157 21.4973 21.5725 20.3144C22.0354 19.8416 22.7971 19.8329 23.2693 20.2952C23.7427 20.7587 23.752 21.5186 23.2879 21.9926C22.2145 23.0912 21.2125 24.2789 20.3113 25.523C20.077 25.8464 19.7101 26.0186 19.3387 26.0186C19.0951 26.0183 18.8491 25.9445 18.6358 25.7906ZM13.8031 32.9177C14.3386 31.3532 14.9971 29.8145 15.7591 28.3457C16.0639 27.7568 16.7881 27.5282 17.3776 27.833C17.9659 28.1384 18.1945 28.8626 17.8897 29.4509C17.182 30.815 16.5712 32.243 16.0744 33.6947C15.9034 34.1927 15.4381 34.5068 14.9389 34.5068C14.8099 34.5068 14.6788 34.4858 14.5498 34.4417C13.9225 34.2275 13.5886 33.5447 13.8031 32.9177ZM33.2866 13.7963C33.058 13.1747 33.3769 12.485 33.9991 12.2564C35.5543 11.6852 37.1632 11.2256 38.7838 10.8917C39.4411 10.7582 40.0681 11.1758 40.2019 11.825C40.3354 12.4736 39.9184 13.1081 39.2692 13.2425C37.7644 13.5524 36.2704 13.9784 34.8265 14.5088C34.6906 14.5592 34.5499 14.5832 34.4128 14.5832C33.9241 14.5832 33.4648 14.282 33.2866 13.7963ZM42.583 11.5154C42.5467 10.8539 43.054 10.2884 43.7149 10.2521C45.3508 10.163 47.0335 10.19 48.6826 10.34C49.3423 10.4003 49.8286 10.9838 49.7689 11.6438C49.7116 12.2672 49.1887 12.7355 48.5749 12.7355C48.5386 12.7355 48.5023 12.7337 48.4648 12.7307C46.9333 12.5912 45.3664 12.5654 43.8463 12.6488C43.183 12.6725 42.6184 12.1775 42.583 11.5154ZM25.0684 18.7064C24.6676 18.1784 24.7708 17.4254 25.2994 17.0252C26.62 16.0226 28.024 15.1115 29.4712 14.3183C30.0526 13.9997 30.7825 14.2133 31.1002 14.7935C31.4188 15.3749 31.2058 16.1042 30.6244 16.4231C29.2813 17.1596 27.9772 18.0056 26.7502 18.9368C26.5333 19.1015 26.278 19.181 26.026 19.181C25.6624 19.181 25.3051 19.0175 25.0684 18.7064ZM81.4741 78.0638L73.6132 62.342C74.4685 61.0514 75.2479 59.6996 75.9157 58.3076C76.2028 57.71 75.9508 56.9927 75.3532 56.7062C74.7532 56.4185 74.0383 56.6723 73.7524 57.2693C73.333 58.1426 72.8566 58.9922 72.3556 59.8271L65.2741 45.6638C64.8664 44.8505 63.535 44.8505 63.1273 45.6638L57.391 57.1364C57.0946 57.7295 57.3346 58.4501 57.9277 58.7465C58.5196 59.0435 59.2402 58.8023 59.5378 58.2098L64.2007 48.8834L78.4588 77.4005H62.062L60.847 73.8005H63.6007C64.264 73.8005 64.8007 73.2632 64.8007 72.6005C64.8007 71.9378 64.264 71.4005 63.6007 71.4005H60.037L46.1374 30.2168C45.9733 29.7293 45.5152 29.4005 45.0007 29.4005C44.4862 29.4005 44.0281 29.7293 43.864 30.2168L33.9049 59.7254L26.8741 45.6638C26.4664 44.8505 25.135 44.8505 24.7273 45.6638L18.2035 58.7114C17.7661 57.9089 17.3521 57.0944 16.9894 56.2622C16.7245 55.6559 16.0204 55.3775 15.4096 55.6424C14.8015 55.9073 14.5237 56.6144 14.7886 57.2222C15.3985 58.619 16.1167 59.9837 16.9141 61.2899L8.52731 78.0638C8.34101 78.4358 8.36081 78.8777 8.58011 79.2317C8.79911 79.5851 9.18491 79.8005 9.60071 79.8005H80.4007C80.8168 79.8005 81.2023 79.5848 81.4213 79.2317C81.6406 78.8777 81.6604 78.4358 81.4741 78.0638ZM59.5294 77.4005H30.472L31.687 73.8005H58.3144L59.5294 77.4005ZM45.0007 34.3529L57.5044 71.4005H32.497L45.0007 34.3529ZM25.8007 48.8834L32.8234 62.9294L29.9644 71.4005H26.4007C25.7374 71.4005 25.2007 71.9378 25.2007 72.6005C25.2007 73.2632 25.7374 73.8005 26.4007 73.8005H29.1544L27.9394 77.4005H11.5426L25.8007 48.8834ZM50.8417 25.2005C50.8417 24.4499 51.4501 23.8415 52.2007 23.8415C52.9513 23.8415 53.5597 24.4499 53.5597 25.2005C53.5597 25.9508 52.9513 26.5592 52.2007 26.5592C51.4501 26.5592 50.8417 25.9508 50.8417 25.2005Z" fill="#006EAD"/>
</svg>
